<svg xmlns="http://www.w3.org/2000/svg" width="860" height="200" viewBox="0 0 860 200" font-family="ui-monospace, SFMono-Regular, Menlo, Consolas, monospace">
<defs>
<linearGradient id="bg" x1="0" y1="0" x2="0" y2="1">
<stop offset="0" stop-color="#111722"/><stop offset="1" stop-color="#0d1117"/>
</linearGradient></defs>
<rect width="860" height="200" rx="12" fill="url(#bg)"/>
<rect x="0.5" y="0.5" width="859" height="199" rx="12" fill="none" stroke="#30363d"/>
<line x1="0" y1="30" x2="860" y2="30" stroke="#30363d"/>

<!-- Title -->
<text x="430" y="19" fill="#7d8590" font-size="12" text-anchor="middle">CliffVale@github: ~$ git contrib --graph</text>

<!-- GitHub contribution graph (auto-updated by workflow) -->
<g transform="translate(40, 50)">
<!-- Months -->
<text x="0" y="0" fill="#7d8590" font-size="10">Jan</text>
<text x="52" y="0" fill="#7d8590" font-size="10">Feb</text>
<text x="104" y="0" fill="#7d8590" font-size="10">Mar</text>
<text x="156" y="0" fill="#7d8590" font-size="10">Apr</text>
<text x="208" y="0" fill="#7d8590" font-size="10">May</text>
<text x="260" y="0" fill="#7d8590" font-size="10">Jun</text>
<text x="312" y="0" fill="#7d8590" font-size="10">Jul</text>
<text x="364" y="0" fill="#7d8590" font-size="10">Aug</text>
<text x="416" y="0" fill="#7d8590" font-size="10">Sep</text>
<text x="468" y="0" fill="#7d8590" font-size="10">Oct</text>
<text x="520" y="0" fill="#7d8590" font-size="10">Nov</text>
<text x="572" y="0" fill="#7d8590" font-size="10">Dec</text>
<text x="630" y="0" fill="#7d8590" font-size="10">2026</text>

<!-- Contribution boxes (placeholder - will be updated by workflow) -->
<!-- Row 1 (Sun) -->
<rect x="0" y="15" width="12" height="12" rx="2" fill="#161b22" stroke="#30363d"><animate attributeName="opacity" from="0" to="1" begin="0.1s" dur="0.3s" fill="freeze"/></rect>
<rect x="15" y="15" width="12" height="12" rx="2" fill="#161b22" stroke="#30363d"><animate attributeName="opacity" from="0" to="1" begin="0.15s" dur="0.3s" fill="freeze"/></rect>
<rect x="30" y="15" width="12" height="12" rx="2" fill="#0e4429" stroke="#30363d"><animate attributeName="opacity" from="0" to="1" begin="0.2s" dur="0.3s" fill="freeze"/></rect>
<rect x="45" y="15" width="12" height="12" rx="2" fill="#161b22" stroke="#30363d"><animate attributeName="opacity" from="0" to="1" begin="0.25s" dur="0.3s" fill="freeze"/></rect>
<rect x="60" y="15" width="12" height="12" rx="2" fill="#006d32" stroke="#30363d"><animate attributeName="opacity" from="0" to="1" begin="0.3s" dur="0.3s" fill="freeze"/></rect>
<rect x="75" y="15" width="12" height="12" rx="2" fill="#161b22" stroke="#30363d"><animate attributeName="opacity" from="0" to="1" begin="0.35s" dur="0.3s" fill="freeze"/></rect>
<rect x="90" y="15" width="12" height="12" rx="2" fill="#0e4429" stroke="#30363d"><animate attributeName="opacity" from="0" to="1" begin="0.4s" dur="0.3s" fill="freeze"/></rect>
<rect x="105" y="15" width="12" height="12" rx="2" fill="#161b22" stroke="#30363d"><animate attributeName="opacity" from="0" to="1" begin="0.45s" dur="0.3s" fill="freeze"/></rect>
<rect x="120" y="15" width="12" height="12" rx="2" fill="#26a641" stroke="#30363d"><animate attributeName="opacity" from="0" to="1" begin="0.5s" dur="0.3s" fill="freeze"/></rect>
<rect x="135" y="15" width="12" height="12" rx="2" fill="#161b22" stroke="#30363d"><animate attributeName="opacity" from="0" to="1" begin="0.55s" dur="0.3s" fill="freeze"/></rect>
<rect x="150" y="15" width="12" height="12" rx="2" fill="#0e4429" stroke="#30363d"><animate attributeName="opacity" from="0" to="1" begin="0.6s" dur="0.3s" fill="freeze"/></rect>
<rect x="165" y="15" width="12" height="12" rx="2" fill="#161b22" stroke="#30363d"><animate attributeName="opacity" from="0" to="1" begin="0.65s" dur="0.3s" fill="freeze"/></rect>
<rect x="180" y="15" width="12" height="12" rx="2" fill="#006d32" stroke="#30363d"><animate attributeName="opacity" from="0" to="1" begin="0.7s" dur="0.3s" fill="freeze"/></rect>
<rect x="195" y="15" width="12" height="12" rx="2" fill="#161b22" stroke="#30363d"><animate attributeName="opacity" from="0" to="1" begin="0.75s" dur="0.3s" fill="freeze"/></rect>
<rect x="210" y="15" width="12" height="12" rx="2" fill="#0e4429" stroke="#30363d"><animate attributeName="opacity" from="0" to="1" begin="0.8s" dur="0.3s" fill="freeze"/></rect>
<rect x="225" y="15" width="12" height="12" rx="2" fill="#161b22" stroke="#30363d"><animate attributeName="opacity" from="0" to="1" begin="0.85s" dur="0.3s" fill="freeze"/></rect>
<rect x="240" y="15" width="12" height="12" rx="2" fill="#26a641" stroke="#30363d"><animate attributeName="opacity" from="0" to="1" begin="0.9s" dur="0.3s" fill="freeze"/></rect>
<rect x="255" y="15" width="12" height="12" rx="2" fill="#161b22" stroke="#30363d"><animate attributeName="opacity" from="0" to="1" begin="0.95s" dur="0.3s" fill="freeze"/></rect>
<rect x="270" y="15" width="12" height="12" rx="2" fill="#0e4429" stroke="#30363d"><animate attributeName="opacity" from="0" to="1" begin="1s" dur="0.3s" fill="freeze"/></rect>
<rect x="285" y="15" width="12" height="12" rx="2" fill="#161b22" stroke="#30363d"><animate attributeName="opacity" from="0" to="1" begin="1.05s" dur="0.3s" fill="freeze"/></rect>
<rect x="300" y="15" width="12" height="12" rx="2" fill="#006d32" stroke="#30363d"><animate attributeName="opacity" from="0" to="1" begin="1.1s" dur="0.3s" fill="freeze"/></rect>
<rect x="315" y="15" width="12" height="12" rx="2" fill="#161b22" stroke="#30363d"><animate attributeName="opacity" from="0" to="1" begin="1.15s" dur="0.3s" fill="freeze"/></rect>
<rect x="330" y="15" width="12" height="12" rx="2" fill="#26a641" stroke="#30363d"><animate attributeName="opacity" from="0" to="1" begin="1.2s" dur="0.3s" fill="freeze"/></rect>

<!-- Add more rows as needed... -->

</g>

<!-- Legend -->
<g transform="translate(680, 50)">
<text x="0" y="0" fill="#7d8590" font-size="10">Less</text>
<rect x="35" y="-8" width="12" height="12" rx="2" fill="#161b22" stroke="#30363d"/>
<rect x="50" y="-8" width="12" height="12" rx="2" fill="#0e4429" stroke="#30363d"/>
<rect x="65" y="-8" width="12" height="12" rx="2" fill="#006d32" stroke="#30363d"/>
<rect x="80" y="-8" width="12" height="12" rx="2" fill="#26a641" stroke="#30363d"/>
<rect x="95" y="-8" width="12" height="12" rx="2" fill="#39d353" stroke="#30363d"/>
<text x="115" y="0" fill="#7d8590" font-size="10">More</text>
</g>

<!-- Stats -->
<text x="430" y="180" fill="#7d8590" font-size="11" text-anchor="middle">🔥 Current streak: 0 days · Longest streak: 0 days · Total contributions: 0</text>

</svg>
